<svg id="icon_social_media_google" xmlns="http://www.w3.org/2000/svg" width="20" height="20" viewBox="0 0 20 20">
  <rect id="Rectangle_4267" data-name="Rectangle 4267" width="20" height="20" fill="#fff" opacity="0"/>
  <g id="google" transform="translate(0.809 0.831)">
    <path id="Path_4562" d="M18.7,8.5H11.322a.607.607,0,0,0-.622.622v2.4a.607.607,0,0,0,.622.622H15.5a6.2,6.2,0,0,1-2.4,2.843l1.777,3.11a8.854,8.854,0,0,0,4.532-7.819,5.067,5.067,0,0,0-.089-1.155C19.23,8.678,19.052,8.5,18.7,8.5Z" transform="translate(-1.148 -0.927)" fill="#167ee6"/>
    <path id="Path_4563" d="M9.208,16.155A5.6,5.6,0,0,1,4.41,13.4L1.3,15.177a9.139,9.139,0,0,0,12.44,3.377h0l-1.777-3.11A5.772,5.772,0,0,1,9.208,16.155Z" transform="translate(-0.1 -1.473)" fill="#12b347"/>
    <path id="Path_4564" d="M14.832,18.71h0L13.055,15.6a4.916,4.916,0,0,1-2.755.711v3.554A8.225,8.225,0,0,0,14.832,18.71Z" transform="translate(-1.103 -1.718)" fill="#0f993e"/>
    <path id="Path_4565" d="M3.549,9.732A5.772,5.772,0,0,1,4.26,6.977L1.15,5.2a9.159,9.159,0,0,0,0,9.063l3.11-1.777A6.346,6.346,0,0,1,3.549,9.732Z" transform="translate(0.05 -0.559)" fill="#ffd500"/>
    <path id="Path_4566" d="M9.219,3.552A5.961,5.961,0,0,1,12.774,4.8a.663.663,0,0,0,.8,0l1.688-1.688a.594.594,0,0,0,0-.889h0a9.035,9.035,0,0,0-12.8.889A5.421,5.421,0,0,0,1.4,4.529L4.51,6.306A5.452,5.452,0,0,1,9.219,3.552Z" transform="translate(-0.112 0.023)" fill="#ff4b26"/>
    <path id="Path_4567" d="M13.765,4.8a.663.663,0,0,0,.8,0L16.253,3.11a.594.594,0,0,0,0-.889h0A9.327,9.327,0,0,0,10.3,0V3.554A5.52,5.52,0,0,1,13.765,4.8Z" transform="translate(-1.103 0.02)" fill="#d93f21"/>
  </g>
</svg>
