<svg id="icon_share_w25_mail" xmlns="http://www.w3.org/2000/svg" xmlns:xlink="http://www.w3.org/1999/xlink" width="25" height="25" viewBox="0 0 25 25">
  <defs>
    <linearGradient id="linear-gradient" x1="0.5" x2="0.5" y2="1" gradientUnits="objectBoundingBox">
      <stop offset="0" stop-color="#dd4b9b"/>
      <stop offset="1" stop-color="#35c4f3"/>
    </linearGradient>
  </defs>
  <g id="bg" fill="#fff" stroke="#707070" stroke-width="1" opacity="0">
    <rect width="25" height="25" stroke="none"/>
    <rect x="0.5" y="0.5" width="24" height="24" fill="none"/>
  </g>
  <path id="Union_22" data-name="Union 22" d="M-273-1645a4,4,0,0,1-4-4v-8a4,4,0,0,1,4-4h15a4,4,0,0,1,4,4v8a4,4,0,0,1-4,4Zm-2-4a2,2,0,0,0,2,2h15a2,2,0,0,0,2-2v-4.558l-9.117,3.029a1,1,0,0,1-.316.051,1.01,1.01,0,0,1-.322-.053L-275-1653.68Zm9.572-3.532,9.428-3.132V-1657a2,2,0,0,0-2-2h-15a2,2,0,0,0-2,2v1.207Z" transform="translate(278 1666)" fill="url(#linear-gradient)"/>
</svg>
