<svg xmlns="http://www.w3.org/2000/svg" xmlns:xlink="http://www.w3.org/1999/xlink" width="129.299" height="19.347" viewBox="0 0 129.299 19.347">
  <defs>
    <linearGradient id="linear-gradient" y1="0.595" x2="1" y2="0.556" gradientUnits="objectBoundingBox">
      <stop offset="0" stop-color="#dddc1f"/>
      <stop offset="0.517" stop-color="#dd4b9b"/>
      <stop offset="1" stop-color="#35c4f3"/>
    </linearGradient>
  </defs>
  <g id="logo_2" transform="translate(0.5 0.499)">
    <g id="logo" transform="translate(0 1.279)">
      <path id="Union_6" data-name="Union 6" d="M2056.1-57.552a6.475,6.475,0,0,1,2.916-8.67,7.113,7.113,0,0,1,5.7-.262,6.3,6.3,0,0,1,3.614,3.914l.077.216-8.4,4.276a.046.046,0,0,0-.023.034.046.046,0,0,0,.013.039,3.944,3.944,0,0,0,5.016.211,4.119,4.119,0,0,0,1.533-2.554v-.022a.044.044,0,0,1,.037-.034l1.836-.264-.012.313a6.532,6.532,0,0,1-3.6,5.586,6.558,6.558,0,0,1-2.968.711,6.415,6.415,0,0,1-5.739-3.494Zm4.822-6.777a3.949,3.949,0,0,0-2.131,4.075.045.045,0,0,0,.024.033.045.045,0,0,0,.04,0l6.6-3.341a.044.044,0,0,0,.024-.032.045.045,0,0,0-.013-.039,3.909,3.909,0,0,0-2.756-1.122,3.951,3.951,0,0,0-1.781.426Zm86.809,6.575a6.476,6.476,0,0,1,3.2-8.57,7.111,7.111,0,0,1,5.707-.074,6.3,6.3,0,0,1,3.484,4.029l.069.22-8.537,4a.046.046,0,0,0-.025.033.046.046,0,0,0,.012.04,3.93,3.93,0,0,0,4.4.724,3.927,3.927,0,0,0,2.193-2.72l.041-.183,1.875-.207-.022.312a6.53,6.53,0,0,1-3.777,5.466,6.56,6.56,0,0,1-2.775.617,6.423,6.423,0,0,1-5.846-3.687Zm5.042-6.615a3.951,3.951,0,0,0-2.263,4,.046.046,0,0,0,.023.034.046.046,0,0,0,.041,0l6.705-3.123a.044.044,0,0,0,.024-.032.044.044,0,0,0-.011-.039,3.916,3.916,0,0,0-2.848-1.213,3.954,3.954,0,0,0-1.663.371Zm-23.792,6.686a6.568,6.568,0,0,1,2.81-8.852,6.561,6.561,0,0,1,6.6.332l-1.556,1.369a3.678,3.678,0,0,0-2.64.288,3.693,3.693,0,0,0-1.579,4.978,3.692,3.692,0,0,0,4.978,1.58,3.68,3.68,0,0,0,1.758-1.989l2.016-.483a6.56,6.56,0,0,1-3.539,5.587,6.534,6.534,0,0,1-3.015.738,6.568,6.568,0,0,1-5.835-3.548Zm-29.137,0a6.568,6.568,0,0,1,2.81-8.852,6.561,6.561,0,0,1,6.6.332l-1.557,1.369a3.675,3.675,0,0,0-2.639.288,3.693,3.693,0,0,0-1.58,4.978,3.692,3.692,0,0,0,4.978,1.58,3.675,3.675,0,0,0,1.758-1.989l2.016-.483a6.559,6.559,0,0,1-3.537,5.587,6.537,6.537,0,0,1-3.016.738,6.568,6.568,0,0,1-5.826-3.548Zm-16.3,2.627a5.761,5.761,0,0,1-2.153-2.236,6.715,6.715,0,0,1-.785-3.28,6.716,6.716,0,0,1,.785-3.281,5.821,5.821,0,0,1,2.152-2.242,5.926,5.926,0,0,1,3.069-.812,5.225,5.225,0,0,1,2.225.444,5.358,5.358,0,0,1,1.513,1.014c.082.082.157.162.227.239v-1.319a.043.043,0,0,1,.012-.03.042.042,0,0,1,.03-.013h2.983a.043.043,0,0,1,.043.043v11.9a.043.043,0,0,1-.043.043h-2.954a.044.044,0,0,1-.043-.043v-1.46c-.058.069-.121.142-.189.216a5.35,5.35,0,0,1-1.52,1.117,4.909,4.909,0,0,1-2.283.5,5.965,5.965,0,0,1-3.073-.8Zm2.241-8.491a3.281,3.281,0,0,0-1.2,1.184,3.422,3.422,0,0,0-.458,1.791,3.425,3.425,0,0,0,.458,1.791,3.225,3.225,0,0,0,1.2,1.175,3.219,3.219,0,0,0,1.6.414,3.149,3.149,0,0,0,1.632-.423,3.066,3.066,0,0,0,1.124-1.179,3.663,3.663,0,0,0,.414-1.778,3.662,3.662,0,0,0-.414-1.779,3.1,3.1,0,0,0-1.126-1.186,3.1,3.1,0,0,0-1.63-.429,3.2,3.2,0,0,0-1.6.42Zm-12.716,8.131a4.106,4.106,0,0,1-1.161-3.143v-5.4a.043.043,0,0,0-.042-.043h-1.891a.043.043,0,0,1-.043-.043v-2.648a.043.043,0,0,1,.043-.043h1.891a.042.042,0,0,0,.03-.013.043.043,0,0,0,.012-.03v-2.612a.042.042,0,0,1,.042-.042h3.224a.043.043,0,0,1,.043.042v2.612a.043.043,0,0,0,.043.043h3.148a.043.043,0,0,1,.043.043v2.648a.043.043,0,0,1-.043.043h-3.148a.043.043,0,0,0-.043.043v5.311a1.529,1.529,0,0,0,.375,1.12.339.339,0,0,0,.031.025,2.123,2.123,0,0,0,1.7.8,2.193,2.193,0,0,0,1.265-.4l.732,1.784-.158.122a3.863,3.863,0,0,1-1.326.642,5.753,5.753,0,0,1-1.53.209,4.577,4.577,0,0,1-3.236-1.07Zm47.006,1.074a.044.044,0,0,1-.043-.043V-66.629a.044.044,0,0,1,.043-.043h3.111a.043.043,0,0,1,.043.043v1.1a.042.042,0,0,0,.025.038.042.042,0,0,0,.045-.008,4.1,4.1,0,0,1,.913-.663,6.232,6.232,0,0,1,2.977-.662h.262v3.2l-.3-.042c-.1-.014-.2-.024-.3-.031s-.189-.01-.274-.01a3.307,3.307,0,0,0-2.379.833,3.444,3.444,0,0,0-.862,2.574v5.923a.043.043,0,0,1-.043.043Zm-6.529,0a.044.044,0,0,1-.043-.043V-66.629a.044.044,0,0,1,.043-.043h3.224a.043.043,0,0,1,.043.043v12.244a.043.043,0,0,1-.043.043Zm28.676,0a.043.043,0,0,1-.042-.043V-71.227a.042.042,0,0,1,.042-.042h3.224a.042.042,0,0,1,.03.012.042.042,0,0,1,.013.03v16.841a.043.043,0,0,1-.043.043Zm-92.154-.215v-4.9a3.091,3.091,0,0,0-3.092-3.091,3.091,3.091,0,0,0-3.092,3.091v4.9h-2.932V-59.49a3.092,3.092,0,0,0-3.092-3.091,3.091,3.091,0,0,0-3.091,3.091v4.932H2032V-66.391h2.667v.8a5.638,5.638,0,0,1,3-.865h.388a5.656,5.656,0,0,1,4.378,2.068,5.653,5.653,0,0,1,4.349-2.036h.389a5.667,5.667,0,0,1,5.666,5.665v6.2ZM2113.23-70.5a1.92,1.92,0,0,1,1.931-1.905,1.921,1.921,0,0,1,1.931,1.9,1.921,1.921,0,0,1-1.931,1.9,1.92,1.92,0,0,1-1.931-1.9Z" transform="translate(-2032 71.127)" stroke="rgba(0,0,0,0)" stroke-width="1" fill="url(#linear-gradient)"/>
    </g>
  </g>
</svg>
