<svg id="icon_member_wallet" xmlns="http://www.w3.org/2000/svg" width="22" height="22" viewBox="0 0 22 22">
  <rect id="bg" width="22" height="22" fill="rgba(255,255,255,0)" opacity="0.255"/>
  <g id="Group_8324" data-name="Group 8324" transform="translate(2.088 2.942)">
    <path id="Path_10230" data-name="Path 10230" d="M2.328,4.058H16.593a2.121,2.121,0,0,1,1.954,2.256v7.952a2.12,2.12,0,0,1-1.954,2.254H2.891A2.121,2.121,0,0,1,.937,14.266V3.051" transform="translate(-0.723 -0.421)" fill="none" stroke="#5a5c5f" stroke-width="1.5"/>
    <path id="Path_10231" data-name="Path 10231" d="M15.221.75H2.381A1.581,1.581,0,0,0,.75,2.276,1.581,1.581,0,0,0,2.381,3.8H16.063V1.538A.817.817,0,0,0,15.221.75Z" transform="translate(-0.75 -0.164)" fill="none" stroke="#5a5c5f" stroke-width="1.5"/>
  </g>
  <path id="Path_10232" data-name="Path 10232" d="M7.2,12.862a6.831,6.831,0,0,1-.927-.149,2.857,2.857,0,0,1-.723-.261V10.96a4.58,4.58,0,0,0,1.049.392,4.463,4.463,0,0,0,1.039.13,1.24,1.24,0,0,0,.657-.135.441.441,0,0,0,.21-.4.5.5,0,0,0-.111-.336,1.133,1.133,0,0,0-.341-.248q-.229-.115-.741-.33A3.548,3.548,0,0,1,6,9.179a1.72,1.72,0,0,1-.41-1.165A1.661,1.661,0,0,1,6.02,6.862,2.291,2.291,0,0,1,7.2,6.195V5.272H8.7v.849a4.209,4.209,0,0,1,1.315.363V7.938a3.542,3.542,0,0,0-1.651-.429,1.387,1.387,0,0,0-.672.141.443.443,0,0,0-.251.41.439.439,0,0,0,.126.317,1.275,1.275,0,0,0,.355.242q.228.111.732.307a5.1,5.1,0,0,1,1.03.537,1.629,1.629,0,0,1,.536.62,2.063,2.063,0,0,1,.167.886,1.731,1.731,0,0,1-.419,1.2,2.211,2.211,0,0,1-1.268.639v.9H7.2Z" transform="translate(2.026 3.264)" fill="#5a5c5f"/>
  <rect id="Rectangle_4632" data-name="Rectangle 4632" width="5" height="3" rx="1" transform="translate(16 11)" fill="#fff" stroke="#5a5c5f" stroke-width="1.5"/>
</svg>
