<svg id="icon_friends_line" xmlns="http://www.w3.org/2000/svg" width="20" height="20" viewBox="0 0 20 20">
  <rect id="Rectangle_4052" data-name="Rectangle 4052" width="20" height="20" fill="none"/>
  <g id="Group_5802" data-name="Group 5802" transform="translate(-0.15 -0.975)">
    <path id="Path_9262" data-name="Path 9262" d="M9.17,9.447A3.745,3.745,0,1,0,5.425,5.7,3.745,3.745,0,0,0,9.17,9.447Zm0-6.271A2.525,2.525,0,1,1,6.645,5.7,2.525,2.525,0,0,1,9.17,3.176Z" transform="translate(-1.726 1)"/>
    <path id="Path_9263" data-name="Path 9263" d="M21.925,14.4a2.838,2.838,0,1,0-2.838-2.838A2.838,2.838,0,0,0,21.925,14.4Zm0-4.453a1.618,1.618,0,1,1-1.618,1.618,1.618,1.618,0,0,1,1.618-1.618Z" transform="translate(-7.054 -1.638)"/>
    <path id="Path_9264" data-name="Path 9264" d="M14.977,19.63a4.012,4.012,0,0,0-2.053.578A6.392,6.392,0,0,0,7.551,17.1C3.938,17.1,1,20.345,1,24.338a.61.61,0,1,0,1.22,0c0-3.321,2.391-6.019,5.331-6.019s5.331,2.7,5.331,6.021a.61.61,0,0,0,1.22,0,7.818,7.818,0,0,0-.617-3.05,2.806,2.806,0,0,1,1.493-.439,3.345,3.345,0,0,1,3.1,3.538.61.61,0,0,0,1.22,0,4.561,4.561,0,0,0-4.323-4.759Z" transform="translate(0 -5.82)"/>
  </g>
</svg>
