<svg id="icon_w18_grey_album" xmlns="http://www.w3.org/2000/svg" width="18" height="18" viewBox="0 0 18 18">
  <g id="bg" fill="#fff" opacity="0">
    <path d="M 17.5 17.5 L 0.5 17.5 L 0.5 0.5 L 17.5 0.5 L 17.5 17.5 Z" stroke="none"/>
    <path d="M 1 1 L 1 17 L 17 17 L 17 1 L 1 1 M 0 0 L 18 0 L 18 18 L 0 18 L 0 0 Z" stroke="none" fill="#707070"/>
  </g>
  <g id="Group_7361" data-name="Group 7361" transform="translate(-489 -1695)">
    <g id="Rectangle_4275" data-name="Rectangle 4275" transform="translate(489 1699.573)" fill="none" stroke="#818ed8" stroke-linecap="round" stroke-linejoin="round" stroke-width="2">
      <rect width="15" height="12" rx="3" stroke="none"/>
      <rect x="1" y="1" width="13" height="10" rx="2" fill="none"/>
    </g>
    <path id="Intersection_3" data-name="Intersection 3" d="M41.678,9.367a1.007,1.007,0,0,1,.166-.322l2.123-2.778a1,1,0,0,1,1.589,0l.724.947L48.1,4.758a1,1,0,0,1,1.606,0L51.116,6.65v.717a2,2,0,0,1-2,2Z" transform="translate(451.402 1700.517)" fill="none" stroke="#818ed8" stroke-linecap="round" stroke-linejoin="round" stroke-width="1.5"/>
    <path id="Path_9777" data-name="Path 9777" d="M4.5,6.106h0A2.6,2.6,0,0,1,7.095,3.5h7.042c2.375.015,4.239,1.4,4.192,3.773v4.095c0,1.439-1.648,2.555-3.081,2.555h0" transform="translate(487.587 1694.073)" fill="none" stroke="#818ed8" stroke-width="2"/>
    <path id="Path_9778" data-name="Path 9778" d="M6.775,13.05A1.275,1.275,0,1,0,5.5,11.775,1.275,1.275,0,0,0,6.775,13.05Z" transform="translate(486.535 1692.523)" fill="#818ed8"/>
  </g>
</svg>
