<svg xmlns="http://www.w3.org/2000/svg" width="26" height="26.137" viewBox="0 0 26 26.137">
  <g id="icon_header_bell" transform="translate(0 0.137)">
    <g id="Rectangle_3273" data-name="Rectangle 3273" fill="#fff" stroke="#707070" stroke-width="1" opacity="0">
      <rect width="26" height="26" stroke="none"/>
      <rect x="0.5" y="0.5" width="25" height="25" fill="none"/>
    </g>
    <path id="Path_4601" data-name="Path 4601" d="M16.931,12.147l-.837-5.692A7.553,7.553,0,0,0,7.523.081l-.033,0A7.553,7.553,0,0,0,1.116,8.657l.837,5.693L0,19.074l2.593-.381,14.977-2.2,2.593-.382Z" transform="matrix(0.998, -0.07, 0.07, 0.998, 1.929, 2.346)" fill="none" stroke="#000" stroke-linecap="round" stroke-linejoin="round" stroke-width="2"/>
    <path id="Path_4651" data-name="Path 4651" d="M0,2.176A3.135,3.135,0,0,1,2.985,0h.586A3.135,3.135,0,0,1,6.555,2.175" transform="matrix(-0.966, 0.259, -0.259, -0.966, 17.993, 23.178)" fill="none" stroke="#000" stroke-linecap="round" stroke-width="1.5"/>
  </g>
</svg>
