<svg id="icon_bottom_bar_s_circle_02" xmlns="http://www.w3.org/2000/svg" width="20" height="20" viewBox="0 0 20 20">
  <rect id="Rectangle_3242" data-name="Rectangle 3242" width="20" height="20" fill="#abffff" opacity="0.003"/>
  <path id="Union_7" data-name="Union 7" d="M39.367,9.958a.829.829,0,0,1-.828-.829V6.882A1.594,1.594,0,0,1,37,5.292V3.366a1.6,1.6,0,0,1,1.6-1.6h2.433a1.6,1.6,0,0,1,1.6,1.6V5.292a1.593,1.593,0,0,1-1.539,1.59V9.129a.829.829,0,0,1-.828.829ZM37.761-.949A2.051,2.051,0,0,1,39.812-3,2.052,2.052,0,0,1,41.865-.949,2.053,2.053,0,0,1,39.812,1.1,2.052,2.052,0,0,1,37.761-.949Z" transform="translate(-30 4.714)" fill="#5a5c5f" stroke="rgba(0,0,0,0)" stroke-width="1"/>
  <path id="Subtraction_1" data-name="Subtraction 1" d="M46.5,11.016a19.77,19.77,0,0,1-6.343-.935C37.548,9.16,37,7.906,37,7.016s.548-2.144,3.157-3.064a14.723,14.723,0,0,1,2.157-.566A3.071,3.071,0,0,0,43.539,4.7v.513a13.943,13.943,0,0,0-2.717.627C39.459,6.319,39,6.849,39,7.016s.459.7,1.822,1.178a17.742,17.742,0,0,0,5.678.822,17.738,17.738,0,0,0,5.677-.822C53.541,7.714,54,7.184,54,7.016s-.459-.7-1.822-1.178a14.44,14.44,0,0,0-3.09-.675V4.7a3.065,3.065,0,0,0,1.254-1.373,15.208,15.208,0,0,1,2.5.627C55.452,4.872,56,6.126,56,7.016s-.548,2.144-3.156,3.064A19.778,19.778,0,0,1,46.5,11.016Z" transform="translate(-36.5 8.047)" fill="#5a5c5f"/>
</svg>
