<svg id="btn_社群_github" xmlns="http://www.w3.org/2000/svg" width="40" height="40" viewBox="0 0 40 40">
  <circle id="Ellipse_183" data-name="Ellipse 183" cx="20" cy="20" r="20" fill="#e5eefc" opacity="0.7"/>
  <g id="github" transform="translate(10 10)">
    <path id="Path_9828" data-name="Path 9828" d="M10,.5A10.128,10.128,0,0,0,0,10.754a10.233,10.233,0,0,0,6.837,9.729c.5.1.683-.221.683-.493,0-.243-.008-.889-.013-1.743C4.727,18.864,4.14,16.87,4.14,16.87a2.7,2.7,0,0,0-1.112-1.5c-.906-.636.07-.623.07-.623A2.1,2.1,0,0,1,4.629,15.8a2.1,2.1,0,0,0,2.912.853,2.206,2.206,0,0,1,.633-1.371C5.954,15.03,3.62,14.148,3.62,10.219A4.011,4.011,0,0,1,4.649,7.468a3.732,3.732,0,0,1,.087-2.714s.838-.275,2.75,1.051a9.2,9.2,0,0,1,5,0c1.9-1.326,2.737-1.051,2.737-1.051a3.836,3.836,0,0,1,.1,2.714,4.028,4.028,0,0,1,1.025,2.751c0,3.939-2.338,4.806-4.563,5.058a2.489,2.489,0,0,1,.675,1.9c0,1.372-.012,2.475-.012,2.808,0,.269.175.59.688.487A10.2,10.2,0,0,0,20,10.754,10.13,10.13,0,0,0,10,.5Z" transform="translate(0 -0.5)" fill="#212121"/>
  </g>
</svg>
