<svg id="btn_社群_ig" xmlns="http://www.w3.org/2000/svg" xmlns:xlink="http://www.w3.org/1999/xlink" width="40" height="40" viewBox="0 0 40 40">
  <defs>
    <radialGradient id="radial-gradient" cx="0.149" cy="1.003" r="1.278" gradientUnits="objectBoundingBox">
      <stop offset="0" stop-color="#ffb140"/>
      <stop offset="0.256" stop-color="#ff5445"/>
      <stop offset="0.599" stop-color="#fc2b82"/>
      <stop offset="1" stop-color="#8e40b7"/>
    </radialGradient>
  </defs>
  <circle id="Ellipse_183" data-name="Ellipse 183" cx="20" cy="20" r="20" fill="#e5eefc" opacity="0.7"/>
  <g id="icon_social_media_ig" transform="translate(10 10)">
    <g id="Group_6840" data-name="Group 6840">
      <g id="Rectangle_4059" data-name="Rectangle 4059" fill="#fff" stroke="#707070" stroke-width="1" opacity="0">
        <rect width="20" height="20" stroke="none"/>
        <rect x="0.5" y="0.5" width="19" height="19" fill="none"/>
      </g>
      <g id="_x37__stroke" transform="translate(0 0)">
        <g id="Instagram_1_">
          <rect id="Rectangle_4060" data-name="Rectangle 4060" width="20" height="20" fill="none"/>
          <path id="Instagram" d="M16.459,4.64a1.194,1.194,0,1,1-1.194-1.194A1.194,1.194,0,0,1,16.459,4.64ZM9.952,13.27A3.317,3.317,0,1,1,13.27,9.952,3.317,3.317,0,0,1,9.952,13.27Zm0-8.428a5.111,5.111,0,1,0,5.111,5.111A5.111,5.111,0,0,0,9.952,4.842Zm0-3.048c2.657,0,2.972.01,4.022.058a5.505,5.505,0,0,1,1.848.343,3.084,3.084,0,0,1,1.144.745,3.082,3.082,0,0,1,.745,1.144,5.509,5.509,0,0,1,.343,1.848c.048,1.05.058,1.364.058,4.022s-.01,2.972-.058,4.022a5.505,5.505,0,0,1-.343,1.848,3.3,3.3,0,0,1-1.889,1.889,5.509,5.509,0,0,1-1.848.343c-1.049.048-1.364.058-4.022.058s-2.972-.01-4.022-.058a5.505,5.505,0,0,1-1.848-.343,3.084,3.084,0,0,1-1.144-.745,3.083,3.083,0,0,1-.745-1.144,5.509,5.509,0,0,1-.343-1.848c-.048-1.05-.058-1.364-.058-4.022s.01-2.972.058-4.022a5.505,5.505,0,0,1,.343-1.848,3.084,3.084,0,0,1,.745-1.144,3.081,3.081,0,0,1,1.144-.745,5.509,5.509,0,0,1,1.848-.343C6.98,1.8,7.295,1.793,9.952,1.793ZM9.952,0c-2.7,0-3.042.012-4.1.06A7.3,7.3,0,0,0,3.433.523,4.877,4.877,0,0,0,1.67,1.67,4.877,4.877,0,0,0,.523,3.433,7.306,7.306,0,0,0,.06,5.849C.012,6.911,0,7.25,0,9.952s.012,3.042.06,4.1a7.306,7.306,0,0,0,.463,2.416A4.877,4.877,0,0,0,1.67,18.234a4.879,4.879,0,0,0,1.763,1.148,7.306,7.306,0,0,0,2.416.463c1.061.048,1.4.06,4.1.06s3.042-.012,4.1-.06a7.306,7.306,0,0,0,2.416-.463,5.089,5.089,0,0,0,2.911-2.911,7.306,7.306,0,0,0,.463-2.416c.048-1.061.06-1.4.06-4.1s-.012-3.042-.06-4.1a7.306,7.306,0,0,0-.463-2.416A4.879,4.879,0,0,0,18.234,1.67,4.879,4.879,0,0,0,16.472.523,7.306,7.306,0,0,0,14.056.06C12.994.012,12.655,0,9.952,0Z" transform="translate(0 0.095)" fill-rule="evenodd" fill="url(#radial-gradient)"/>
        </g>
      </g>
    </g>
  </g>
</svg>
