<svg id="icon_edit" xmlns="http://www.w3.org/2000/svg" width="18" height="18" viewBox="0 0 18 18">
  <rect id="Rectangle_4650" data-name="Rectangle 4650" width="18" height="18" opacity="0"/>
  <path id="Path_10260" data-name="Path 10260" d="M13.051.951a3.263,3.263,0,0,0-4.606,0l-1.3,1.3c-.017.014-.036.019-.051.034a.411.411,0,0,0-.034.051L1.3,8.093A4.433,4.433,0,0,0,0,11.244v1.9A.851.851,0,0,0,.85,14H2.756a4.438,4.438,0,0,0,3.153-1.3L13.05,5.555a3.263,3.263,0,0,0,0-4.6M4.71,11.489a2.764,2.764,0,0,1-1.954.81H2.028a.327.327,0,0,1-.327-.328v-.733a2.751,2.751,0,0,1,.805-1.944L7.7,4.1,9.9,6.3Zm7.137-7.137-.743.743-2.2-2.2.742-.742a1.555,1.555,0,0,1,2.2,2.2" transform="translate(2 2)"/>
</svg>
