<svg id="icon_member_9_account" xmlns="http://www.w3.org/2000/svg" xmlns:xlink="http://www.w3.org/1999/xlink" width="22.131" height="22" viewBox="0 0 22.131 22">
  <defs>
    <clipPath id="clip-path">
      <rect id="Rectangle_4334" data-name="Rectangle 4334" width="22" height="22" fill="none"/>
    </clipPath>
  </defs>
  <g id="Group_7028" data-name="Group 7028" opacity="0" style="mix-blend-mode: normal;isolation: isolate">
    <g id="Group_7027" data-name="Group 7027">
      <g id="Group_7026" data-name="Group 7026" clip-path="url(#clip-path)">
        <rect id="Rectangle_4333" data-name="Rectangle 4333" width="22" height="22" fill="#abffff"/>
      </g>
    </g>
  </g>
  <path id="Path_9926" data-name="Path 9926" d="M10.08,20.469C.328,18.058,2.349,4.581,2.207,4.546A21.844,21.844,0,0,0,10.08,1.638,22.833,22.833,0,0,0,12.137,2.8a17.713,17.713,0,0,0,6.029,1.887,6.546,6.546,0,0,1,0,2.519" fill="none" stroke="#5a5c5f" stroke-linecap="round" stroke-linejoin="round" stroke-width="1.5"/>
  <rect id="Rectangle_4335" data-name="Rectangle 4335" width="8.828" height="7.111" rx="1.201" transform="translate(12.553 13.358)" fill="none" stroke="#5a5c5f" stroke-linecap="round" stroke-linejoin="round" stroke-width="1.5"/>
  <path id="Path_9927" data-name="Path 9927" d="M15.561,14.463V13.454a1.908,1.908,0,0,1,3.816,0v1.009" transform="translate(-0.423 -2.123)" fill="none" stroke="#5a5c5f" stroke-linecap="round" stroke-linejoin="round" stroke-width="1.5"/>
  <path id="Path_9928" data-name="Path 9928" d="M18.342,17.538a1,1,0,1,1-1-1,1,1,0,0,1,1,1" transform="translate(-0.193 -0.649)" fill="#5a5c5f"/>
  <path id="Path_9929" data-name="Path 9929" d="M7.686,10.086l1.646,2.139,3.653-4.08" transform="translate(-0.432 -0.538)" fill="none" stroke="#5a5c5f" stroke-linecap="round" stroke-linejoin="round" stroke-width="1.5"/>
</svg>
