<svg xmlns="http://www.w3.org/2000/svg" xmlns:xlink="http://www.w3.org/1999/xlink" width="51" height="51" viewBox="0 0 51 51">
  <defs>
    <radialGradient id="radial-gradient" cx="0.5" cy="0.5" r="0.5" gradientUnits="objectBoundingBox">
      <stop offset="0" stop-color="#dddc1f"/>
      <stop offset="0.517" stop-color="#dd4b9b"/>
      <stop offset="1" stop-color="#35c4f3"/>
    </radialGradient>
  </defs>
  <g id="loading" transform="translate(-119 -267.001)">
    <path id="Exclusion_1" data-name="Exclusion 1" d="M-7802.5-2490a25.337,25.337,0,0,1-9.925-2,25.427,25.427,0,0,1-8.105-5.465,25.427,25.427,0,0,1-5.465-8.106,25.343,25.343,0,0,1-2-9.925,25.347,25.347,0,0,1,2-9.926,25.417,25.417,0,0,1,5.465-8.105,25.418,25.418,0,0,1,8.105-5.465,25.339,25.339,0,0,1,9.925-2,25.342,25.342,0,0,1,9.926,2,25.416,25.416,0,0,1,8.1,5.465,25.413,25.413,0,0,1,5.465,8.105,25.347,25.347,0,0,1,2,9.926,25.343,25.343,0,0,1-2,9.925,25.413,25.413,0,0,1-5.465,8.106,25.413,25.413,0,0,1-8.1,5.465A25.344,25.344,0,0,1-7802.5-2490Zm0-46a20.367,20.367,0,0,0-7.979,1.611A20.437,20.437,0,0,0-7817-2530a20.423,20.423,0,0,0-4.393,6.516A20.363,20.363,0,0,0-7823-2515.5a20.361,20.361,0,0,0,1.611,7.979A20.42,20.42,0,0,0-7817-2501a20.435,20.435,0,0,0,6.517,4.393A20.373,20.373,0,0,0-7802.5-2495a20.373,20.373,0,0,0,7.979-1.611A20.435,20.435,0,0,0-7788-2501a20.428,20.428,0,0,0,4.393-6.516A20.372,20.372,0,0,0-7782-2515.5a20.374,20.374,0,0,0-1.611-7.979A20.439,20.439,0,0,0-7788-2530a20.433,20.433,0,0,0-6.517-4.393A20.367,20.367,0,0,0-7802.5-2536Z" transform="translate(7947 2808)" fill="url(#radial-gradient)"/>
    <circle id="Ellipse_311" data-name="Ellipse 311" cx="2.5" cy="2.5" r="2.5" transform="translate(165 290)" fill="#ddd426"/>
  </g>
</svg>
