<svg xmlns="http://www.w3.org/2000/svg" width="32" height="32" viewBox="0 0 32 32">
  <g id="icon_bottom_bar_s_message_02_b_full" transform="translate(-1211 -1927)">
    <path id="Path_11619" data-name="Path 11619" d="M16,0A16,16,0,1,1,0,16,16,16,0,0,1,16,0Z" transform="translate(1211 1927)" fill="#35c4f3" opacity="0.12"/>
    <g id="icon_bottom_bar_s_message_02_b" transform="translate(1217 1933)">
      <rect id="Rectangle_3242" data-name="Rectangle 3242" width="20" height="20" fill="#abffff" opacity="0"/>
      <path id="Path_4622" data-name="Path 4622" d="M12.329,1.694H1.883A1.376,1.376,0,0,0,.507,3.07V9.936a1.375,1.375,0,0,0,1.376,1.376H4.57L3.983,13.4a.427.427,0,0,0,.587.554l4.149-2.646h3.61A1.375,1.375,0,0,0,13.7,9.936V3.07a1.376,1.376,0,0,0-1.376-1.376" transform="translate(0.493 0.306)" fill="#16b2e5" stroke="#16b2e5" stroke-linecap="round" stroke-width="1.5"/>
      <path id="Path_9260" data-name="Path 9260" d="M1,6.411v.246a.943.943,0,0,0,.941.941H3.658l4,2.453a.293.293,0,0,0,.4-.38L7.472,7.6h1.64a.944.944,0,0,0,.943-.944V1.944A.945.945,0,0,0,9.11,1H8.76" transform="translate(8.945 8.158)" fill="none" stroke="#16b2e5" stroke-linecap="square" stroke-width="1.5"/>
    </g>
  </g>
</svg>
