<svg id="icon_圈圈頭像" xmlns="http://www.w3.org/2000/svg" xmlns:xlink="http://www.w3.org/1999/xlink" width="38" height="37" viewBox="0 0 38 37">
  <defs>
    <linearGradient id="linear-gradient" x1="0.5" x2="0.5" y2="1" gradientUnits="objectBoundingBox">
      <stop offset="0" stop-color="#dd4b9b"/>
      <stop offset="1" stop-color="#35c4f3"/>
    </linearGradient>
  </defs>
  <g id="bg" fill="#fff" stroke="#707070" stroke-width="1" opacity="0">
    <rect width="38" height="37" stroke="none"/>
    <rect x="0.5" y="0.5" width="37" height="36" fill="none"/>
  </g>
  <path id="Union_21" data-name="Union 21" d="M97.3,6451.494c0-7.145-5.294-12.956-11.8-12.956s-11.8,5.808-11.8,12.954a1.35,1.35,0,0,1-2.7,0c0-8.595,6.5-15.58,14.5-15.584a14.235,14.235,0,0,1,11.894,6.7c.284.6.822,1.3,1.238,2.329a16.442,16.442,0,0,1,1.368,6.562,1.351,1.351,0,0,1-2.7,0Zm-20.324-25.429a8.294,8.294,0,1,1,8.289,8.057A8.173,8.173,0,0,1,76.976,6426.065Zm2.7,0a5.593,5.593,0,1,0,5.591-5.438A5.514,5.514,0,0,0,79.674,6426.065Z" transform="translate(-66.501 -6416.905)" fill="url(#linear-gradient)"/>
</svg>
