<svg xmlns="http://www.w3.org/2000/svg" width="23.247" height="22.249" viewBox="0 0 23.247 22.249">
  <g id="icon_member_6_history" transform="translate(0.507)">
    <rect id="bg" width="22" height="22" fill="#abffff" opacity="0"/>
    <g id="Group_7014" data-name="Group 7014" transform="translate(719.36 -1829.47)">
      <path id="Path_9918" data-name="Path 9918" d="M2.681,4.127A2.063,2.063,0,1,0,.618,2.063,2.064,2.064,0,0,0,2.681,4.127" transform="translate(-710.363 1835.69)" fill="#5a5c5f"/>
      <path id="Union_16" data-name="Union 16" d="M0,3.533V2.819a2.818,2.818,0,1,1,5.637,0v.714H5.621A4.6,4.6,0,0,1,2.786,4.59,4.393,4.393,0,0,1,0,3.533Z" transform="translate(-710.5 1840.661)" fill="#5a5c5f"/>
    </g>
    <path id="Path_9922" data-name="Path 9922" d="M6.817.7A8.107,8.107,0,1,1,1.722,4.325" transform="translate(0.929 16.903) rotate(-73)" fill="none" stroke="#5a5c5f" stroke-linecap="round" stroke-width="1.5"/>
    <path id="Path_9923" data-name="Path 9923" d="M-701.945,1827.929l-1.806,3.046,2.938,1.824" transform="translate(-1358.393 -1400.459) rotate(-65)" fill="rgba(0,0,0,0)" stroke="#5a5c5f" stroke-linecap="round" stroke-width="1.5"/>
  </g>
</svg>
