<svg id="icon_圈幣_22" xmlns="http://www.w3.org/2000/svg" xmlns:xlink="http://www.w3.org/1999/xlink" width="22" height="22" viewBox="0 0 22 22">
  <defs>
    <clipPath id="clip-path">
      <path id="Path_4588" data-name="Path 4588" d="M3.154,12.705a8.952,8.952,0,1,1,8.952,8.951,8.952,8.952,0,0,1-8.952-8.951M11,0A11,11,0,1,0,22,11,11,11,0,0,0,11,0Z" fill="none"/>
    </clipPath>
    <linearGradient id="linear-gradient" y1="0.565" x2="0.817" y2="0.356" gradientUnits="objectBoundingBox">
      <stop offset="0" stop-color="#dcdb1e"/>
      <stop offset="0.205" stop-color="#dcdb1e"/>
      <stop offset="1" stop-color="#dc4b9a"/>
    </linearGradient>
    <clipPath id="clip-path-2">
      <path id="Path_4589" data-name="Path 4589" d="M.942,9.3a8.952,8.952,0,1,1,8.953,8.952A8.953,8.953,0,0,1,.942,9.3M11,0A11,11,0,1,0,22,11,11,11,0,0,0,11,0Z" fill="none"/>
    </clipPath>
    <linearGradient id="linear-gradient-2" x1="1.046" y1="0.743" x2="0.14" y2="0.969" gradientUnits="objectBoundingBox">
      <stop offset="0" stop-color="#dc4b9a"/>
      <stop offset="0.613" stop-color="#35c3f2"/>
      <stop offset="1" stop-color="#35c3f2"/>
    </linearGradient>
  </defs>
  <circle id="Ellipse_81" data-name="Ellipse 81" cx="10.12" cy="10.12" r="10.12" transform="translate(0.88 0.88)" fill="#fff"/>
  <g id="Group_5310" data-name="Group 5310">
    <g id="Group_5309" data-name="Group 5309" clip-path="url(#clip-path)">
      <rect id="Rectangle_3193" data-name="Rectangle 3193" width="22" height="22" fill="url(#linear-gradient)"/>
    </g>
  </g>
  <g id="Group_5311" data-name="Group 5311" clip-path="url(#clip-path-2)">
    <rect id="Rectangle_3194" data-name="Rectangle 3194" width="22" height="22" fill="url(#linear-gradient-2)"/>
  </g>
  <path id="Path_4590" data-name="Path 4590" d="M10.114,15.36A3.313,3.313,0,0,1,8.7,14.024a4.058,4.058,0,0,1-.5-2.043,4.058,4.058,0,0,1,.5-2.043A3.346,3.346,0,0,1,10.114,8.6a4.566,4.566,0,0,1,2.117-.47,5.759,5.759,0,0,1,1.415.158,3.905,3.905,0,0,1,1.151.5v1.774a3.009,3.009,0,0,0-1.051-.539A4.871,4.871,0,0,0,12.4,9.847a2.335,2.335,0,0,0-1.679.565,2.066,2.066,0,0,0-.591,1.568,2.073,2.073,0,0,0,.6,1.573,2.325,2.325,0,0,0,1.674.57,4.765,4.765,0,0,0,1.362-.18,3.511,3.511,0,0,0,1.119-.57v1.764a4.612,4.612,0,0,1-2.651.686,4.609,4.609,0,0,1-2.117-.465" transform="translate(-0.985 -0.975)"/>
</svg>
