<svg xmlns="http://www.w3.org/2000/svg" width="26.053" height="26" viewBox="0 0 26.053 26">
  <g id="icon_awesome_26" transform="translate(0.053)">
    <rect id="Rectangle_3256" data-name="Rectangle 3256" width="26" height="26" fill="#00d079" opacity="0"/>
    <path id="Union_43" data-name="Union 43" d="M5.422,19.889a8.1,8.1,0,0,1-3.23-2.64,7,7,0,0,1-.48-8.265.621.621,0,0,1-.158-.447,4.074,4.074,0,0,0-.439-1.993,11.565,11.565,0,0,1-.84-1.926A4.636,4.636,0,0,1,.436,1.062c.693-1.131,2-1.19,3.172-.939A2.837,2.837,0,0,1,5.24.9a3.447,3.447,0,0,1,.807,1.779A9.691,9.691,0,0,1,5.607,6,5.37,5.37,0,0,1,9.072,6a3,3,0,0,1,1.98,3.229,2.835,2.835,0,0,1-.453,1.552,2.022,2.022,0,0,1,.887,1.523,3.274,3.274,0,0,1-.639,2.265,2,2,0,0,1,1.063,1.278,3.763,3.763,0,0,1-.34,2.335,2.466,2.466,0,0,1-1.537,1.438,9.076,9.076,0,0,1-2.91.564A4.675,4.675,0,0,1,5.422,19.889ZM6.908,7.112a5.835,5.835,0,0,0-4.488,3.38,5.632,5.632,0,0,0,.7,5.758,8.313,8.313,0,0,0,2.123,2.039,3.961,3.961,0,0,0,3.1.38,5.467,5.467,0,0,0,1.529-.442,1.671,1.671,0,0,0,.625-1.1c.125-.472.254-.99-.205-1.312a.977.977,0,0,0-.672-.158A3.377,3.377,0,0,1,8.676,16a.683.683,0,0,1-.527-1.241,3.212,3.212,0,0,1,.908-.352,2.151,2.151,0,0,0,1.076-1.554A.874.874,0,0,0,9.4,11.743a5.635,5.635,0,0,1-.861.312.647.647,0,0,1-.359.009c-.713.409-1.346-.725-.643-1.2a2.963,2.963,0,0,1,1.641-.486,1.047,1.047,0,0,0,.4-.448,2.814,2.814,0,0,0,.049-1.651c-.236-.93-1.3-1.188-2.207-1.188A4.908,4.908,0,0,0,6.908,7.112ZM1.777,1.551a1.674,1.674,0,0,0-.4,1.308,5.319,5.319,0,0,0,.385,1.914c.24.61.6,1.174.844,1.784a4.335,4.335,0,0,1,.266,1.068A7.731,7.731,0,0,1,4.3,6.577a.829.829,0,0,1-.076-.521c.184-1.171.857-2.57.334-3.736a1.452,1.452,0,0,0-.463-.639,2.846,2.846,0,0,0-.9-.264,3.742,3.742,0,0,0-.7-.085A1.075,1.075,0,0,0,1.777,1.551Z" transform="translate(0.46 5.305)" stroke="rgba(0,0,0,0)" stroke-width="1"/>
    <path id="Union_44" data-name="Union 44" d="M3.043,19.926a4.743,4.743,0,0,1-1.918-.734,3.477,3.477,0,0,1-.883-3.74,2.1,2.1,0,0,1,.893-.879A3.3,3.3,0,0,1,.5,12.31a2.017,2.017,0,0,1,.842-1.49,3.531,3.531,0,0,1-.4-2.107A3.049,3.049,0,0,1,3.879,5.787a5.875,5.875,0,0,1,2.5.219c-.26-1.263-.727-2.553-.338-3.832A3.018,3.018,0,0,1,7.107.581,4.138,4.138,0,0,1,8.889.038a2.467,2.467,0,0,1,2.875,1.483,5.348,5.348,0,0,1-.223,3.614c-.229.593-.551,1.132-.811,1.708a3.79,3.79,0,0,0-.295,1.7.627.627,0,0,1-.16.446,6.8,6.8,0,0,1,.459.823,7.037,7.037,0,0,1,.541,4.438,8.055,8.055,0,0,1-2.182,3.819,6.2,6.2,0,0,1-3.523,2.08,4.8,4.8,0,0,1-.648.043A8.022,8.022,0,0,1,3.043,19.926ZM1.51,16c-.307.413-.066,1.044.082,1.486a1.364,1.364,0,0,0,1.1.949,9.112,9.112,0,0,0,1.967.4c2.023.105,3.74-1.679,4.682-3.309a5.561,5.561,0,0,0-.172-5.74A5.554,5.554,0,0,0,4.264,7.1C3.24,7.183,2.375,7.6,2.3,8.712A1.989,1.989,0,0,0,2.58,10.2a1.064,1.064,0,0,0,.217.178,2.964,2.964,0,0,1,1.654.486c.7.479.066,1.615-.645,1.2a.655.655,0,0,1-.359-.008,7.2,7.2,0,0,1-.9-.3.874.874,0,0,0-.693,1.1A2.148,2.148,0,0,0,2.908,14.4a3.276,3.276,0,0,1,.928.365A.682.682,0,0,1,3.311,16a3.439,3.439,0,0,1-.926-.338,1.291,1.291,0,0,0-.162-.011A.844.844,0,0,0,1.51,16ZM9.119,7.612a4.221,4.221,0,0,1,.266-1.052c.246-.61.6-1.174.846-1.784a5.488,5.488,0,0,0,.383-1.914,1.667,1.667,0,0,0-.4-1.308A1.714,1.714,0,0,0,8.8,1.421a2.814,2.814,0,0,0-.9.264,1.506,1.506,0,0,0-.463.639c-.521,1.166.15,2.565.334,3.736a.825.825,0,0,1-.07.512A7.371,7.371,0,0,1,9.119,7.612Z" transform="translate(13.405 5.301)" stroke="rgba(0,0,0,0)" stroke-width="1"/>
    <g id="Group_7980" data-name="Group 7980" transform="translate(-855 -2608)">
      <path id="Path_10141" data-name="Path 10141" d="M11.7.7a26.738,26.738,0,0,0-.211,3.99.7.7,0,0,0,1.4,0c0-.055,0-.111,0-.167a.7.7,0,0,0-1.4,0c0,.056,0,.112,0,.167h1.4A26.738,26.738,0,0,1,13.1.7a.7.7,0,0,0-.7-.7.722.722,0,0,0-.7.7" transform="translate(855.46 2608.51)"/>
      <path id="Path_10142" data-name="Path 10142" d="M6.859,1.785A31.953,31.953,0,0,1,8.01,5.152.7.7,0,1,0,9.36,4.78,31.953,31.953,0,0,0,8.209,1.413.718.718,0,0,0,7.348.924a.707.707,0,0,0-.489.861" transform="translate(855.46 2608.51)"/>
      <path id="Path_10143" data-name="Path 10143" d="M17.764.963A13.1,13.1,0,0,0,15.89,4.812a.7.7,0,1,0,1.35.372q.15-.5.34-.989c.032-.081.064-.162.1-.242-.047.112.02-.046.033-.073q.1-.24.221-.474A12.445,12.445,0,0,1,18.973,1.67a.7.7,0,0,0-.251-.958.719.719,0,0,0-.958.251" transform="translate(855.46 2608.51)"/>
    </g>
  </g>
</svg>
