<svg id="icon_w18_grey_resource" xmlns="http://www.w3.org/2000/svg" width="18" height="19" viewBox="0 0 18 19">
  <g id="bg" fill="#fff" stroke="#707070" stroke-width="1" opacity="0">
    <rect width="18" height="19" stroke="none"/>
    <rect x="0.5" y="0.5" width="17" height="18" fill="none"/>
  </g>
  <path id="Path_9989" data-name="Path 9989" d="M.5,11.455v-9.4A1.552,1.552,0,0,1,2.052.5H5.175a1.553,1.553,0,0,1,1.232.608l1.57,1.833a1.552,1.552,0,0,0,1.232.608h4.429A1.552,1.552,0,0,1,15.19,5.1v6.387a1.551,1.551,0,0,1-1.556,1.552L2.048,13.007A1.552,1.552,0,0,1,.5,11.455Z" transform="translate(1.155 2.23)" fill="none" stroke="#ddb044" stroke-linecap="round" stroke-linejoin="round" stroke-width="2"/>
</svg>
