<svg xmlns="http://www.w3.org/2000/svg" xmlns:xlink="http://www.w3.org/1999/xlink" width="43" height="43" viewBox="0 0 43 43">
  <defs>
    <filter id="Ellipse_313" x="0" y="0" width="43" height="43" filterUnits="userSpaceOnUse">
      <feOffset dy="3" input="SourceAlpha"/>
      <feGaussianBlur stdDeviation="3" result="blur"/>
      <feFlood flood-opacity="0.161"/>
      <feComposite operator="in" in2="blur"/>
      <feComposite in="SourceGraphic"/>
    </filter>
  </defs>
  <g id="icon_privacy_公開" transform="translate(9 6)">
    <g id="bg" fill="#fff" stroke="#707070" stroke-width="1" opacity="0">
      <rect width="25" height="25" stroke="none"/>
      <rect x="0.5" y="0.5" width="24" height="24" fill="none"/>
    </g>
    <g id="Group_7485" data-name="Group 7485" transform="translate(-124 -1464)">
      <g transform="matrix(1, 0, 0, 1, 115, 1458)" filter="url(#Ellipse_313)">
        <circle id="Ellipse_313-2" data-name="Ellipse 313" cx="12.5" cy="12.5" r="12.5" transform="translate(9 6)" fill="#fff"/>
      </g>
      <g id="Group_7484" data-name="Group 7484" transform="translate(-85.476 -0.383)">
        <path id="Path_10005" data-name="Path 10005" d="M4.052,6.869A3.434,3.434,0,1,0,.618,3.434,3.435,3.435,0,0,0,4.052,6.869" transform="translate(214.46 1468.271)" fill="#16b2e5"/>
        <path id="Union_29" data-name="Union 29" d="M0,5.1V4.811a4.811,4.811,0,0,1,9.621,0V5.1H9.592A8.778,8.778,0,0,1,4.755,6.625,8.223,8.223,0,0,1,0,5.1Z" transform="translate(213.942 1475.933)" fill="#16b2e5"/>
      </g>
      <path id="Path_10007" data-name="Path 10007" d="M659.987,298.457l2.751,2.788,5.915-6.267" transform="translate(-522.918 1181.949)" fill="none" stroke="#313131" stroke-linecap="round" stroke-linejoin="round" stroke-width="2"/>
    </g>
  </g>
</svg>
