<svg id="icon_member_1_bigcircle" xmlns="http://www.w3.org/2000/svg" width="22" height="22" viewBox="0 0 22 22">
  <rect id="bg" width="22" height="22" fill="#abffff" opacity="0"/>
  <g id="Group_7019" data-name="Group 7019" transform="translate(712.063 -1677.908)">
    <path id="Path_4619" data-name="Path 4619" d="M12.571,7.129A5.879,5.879,0,1,1,6.693,1.25a5.878,5.878,0,0,1,5.879,5.879" transform="translate(-711.731 1678.113)" fill="none" stroke="#5a5c5f" stroke-linecap="round" stroke-width="1.5"/>
    <path id="Path_4620" data-name="Path 4620" d="M9.619,15.975a2.256,2.256,0,1,1-2.256-2.256,2.256,2.256,0,0,1,2.256,2.256" transform="translate(-711.403 1680.222)" fill="none" stroke="#5a5c5f" stroke-linecap="round" stroke-width="1.5"/>
    <path id="Path_4621" data-name="Path 4621" d="M18.186,11.946a3.224,3.224,0,1,1-3.224-3.224,3.224,3.224,0,0,1,3.224,3.224" transform="translate(-709.395 1680.186)" fill="none" stroke="#5a5c5f" stroke-linecap="round" stroke-width="1.5"/>
  </g>
</svg>
