<svg id="icon_member_12_setting" xmlns="http://www.w3.org/2000/svg" width="22" height="22" viewBox="0 0 22 22">
  <rect id="bg" width="22" height="22" fill="rgba(255,255,255,0)"/>
  <path id="Path_10233" data-name="Path 10233" d="M10.849,1.486a2.074,2.074,0,0,0-3.978,0l-.1.353a.966.966,0,0,1-1.39.576l-.322-.177A2.074,2.074,0,0,0,2.241,5.053l.175.323a.967.967,0,0,1-.387,1.311.912.912,0,0,1-.189.079l-.353.1a2.074,2.074,0,0,0,0,3.978l.353.1a.966.966,0,0,1,.576,1.39l-.177.323a2.075,2.075,0,0,0,2.815,2.813l.322-.176a.967.967,0,0,1,1.311.387.912.912,0,0,1,.079.189l.1.353a2.074,2.074,0,0,0,3.978,0l.1-.353a.966.966,0,0,1,1.39-.576l.323.177a2.074,2.074,0,0,0,2.813-2.814l-.176-.323a.967.967,0,0,1,.387-1.311.912.912,0,0,1,.189-.079l.353-.1a2.074,2.074,0,0,0,0-3.978l-.353-.1a.966.966,0,0,1-.576-1.39l.177-.323A2.074,2.074,0,0,0,12.666,2.24l-.323.176a.967.967,0,0,1-1.311-.387.912.912,0,0,1-.079-.189l-.1-.353" transform="translate(2.141 2.141)" fill="none" stroke="#5a5c5f" stroke-linecap="round" stroke-linejoin="round" stroke-width="1.5"/>
  <circle id="Ellipse_474" data-name="Ellipse 474" cx="2.5" cy="2.5" r="2.5" transform="translate(8.472 8.528)" fill="none" stroke="#5a5c5f" stroke-linecap="round" stroke-linejoin="round" stroke-width="1.5"/>
</svg>
