<svg id="icon_member_20_circle" xmlns="http://www.w3.org/2000/svg" width="20" height="20" viewBox="0 0 20 20">
  <rect id="bg" width="20" height="20" fill="#fff" opacity="0"/>
  <g id="Group_8321" data-name="Group 8321" transform="translate(-1581 -2130)">
    <path id="Path_9909" data-name="Path 9909" d="M10.084,14.126a.84.84,0,0,1-.839-.84V11.01A1.614,1.614,0,0,1,7.686,9.4V7.448A1.619,1.619,0,0,1,9.3,5.831h2.465a1.618,1.618,0,0,1,1.617,1.618V9.4a1.614,1.614,0,0,1-1.559,1.611v2.276a.84.84,0,0,1-.839.84ZM8.457,3.078a2.079,2.079,0,1,1,2.078,2.079A2.078,2.078,0,0,1,8.457,3.078v0" transform="translate(1580.379 2130)"/>
    <path id="Path_9910" data-name="Path 9910" d="M13,12.086a2.512,2.512,0,0,1-.884.613v.672c3.8.32,6.138,1.493,6.138,2.341,0,.99-3.18,2.429-8.165,2.429S1.924,16.7,1.924,15.713c0-.821,2.194-1.948,5.786-2.31v-.7a2.515,2.515,0,0,1-.843-.575C3.4,12.583.555,13.795.555,15.713c0,2.494,4.8,3.8,9.535,3.8s9.534-1.3,9.534-3.8c0-1.975-3.015-3.2-6.624-3.627" transform="translate(1581 2129.034)"/>
  </g>
</svg>
