<svg xmlns="http://www.w3.org/2000/svg" xmlns:xlink="http://www.w3.org/1999/xlink" width="14" height="19.553" viewBox="0 0 14 19.553">
  <defs>
    <linearGradient id="linear-gradient" x1="0.5" y1="0.398" x2="0.5" y2="1.06" gradientUnits="objectBoundingBox">
      <stop offset="0" stop-color="#b91528"/>
      <stop offset="1" stop-color="#ff485d"/>
    </linearGradient>
    <linearGradient id="linear-gradient-2" x1="0.5" x2="0.5" y2="1" gradientUnits="objectBoundingBox">
      <stop offset="0" stop-color="#fff8de"/>
      <stop offset="1" stop-color="#f2e3a9"/>
    </linearGradient>
  </defs>
  <g id="icon_medal__" data-name="icon_medal_２" transform="translate(1 1)">
    <path id="Path_4667" data-name="Path 4667" d="M2572.237,2210.212v10.342l3.873-2.618,3.906,2.618v-10.069Z" transform="translate(-2570.237 -2202)" fill="url(#linear-gradient)"/>
    <g id="Ellipse_112" data-name="Ellipse 112" stroke="#edc106" stroke-linecap="round" stroke-linejoin="round" stroke-width="1" fill="url(#linear-gradient-2)">
      <circle cx="6" cy="6" r="6" stroke="none"/>
      <circle cx="6" cy="6" r="6.5" fill="none"/>
    </g>
    <path id="Path_4671" data-name="Path 4671" d="M4.5.3l.821,1.663a.541.541,0,0,0,.408.3l1.835.267a.542.542,0,0,1,.3.924L6.538,4.746a.545.545,0,0,0-.156.48l.313,1.827a.542.542,0,0,1-.786.572L4.267,6.762a.543.543,0,0,0-.5,0l-1.64.864a.542.542,0,0,1-.786-.572l.313-1.827a.545.545,0,0,0-.156-.48L.164,3.452a.541.541,0,0,1,.3-.924L2.3,2.261a.541.541,0,0,0,.408-.3L3.529.3A.542.542,0,0,1,4.5.3" transform="translate(1.75 2.156)" fill="#edc106"/>
  </g>
</svg>
