<svg xmlns="http://www.w3.org/2000/svg" width="32" height="32" viewBox="0 0 32 32">
  <g id="icon_bottom_bar_home_02_b_full" transform="translate(-1136 -1927)">
    <path id="Path_11618" data-name="Path 11618" d="M16,0A16,16,0,1,1,0,16,16,16,0,0,1,16,0Z" transform="translate(1136 1927)" fill="#35c4f3" opacity="0.12"/>
    <g id="icon_bottom_bar_home_02_b" transform="translate(1142 1933)">
      <rect id="Rectangle_3242" data-name="Rectangle 3242" width="20" height="20" fill="#abffff" opacity="0"/>
      <circle id="Ellipse_324" data-name="Ellipse 324" cx="10" cy="10" r="10" fill="#16b2e5"/>
      <path id="Path_10032" data-name="Path 10032" d="M3.019.47.1,6.3a1.161,1.161,0,0,0-.02,1l2.687,5.721a.715.715,0,0,0,1.343-.026L7.029,7.16a1.161,1.161,0,0,0,.02-1L4.362.444A.715.715,0,0,0,3.019.47Z" transform="translate(10.434 2.544) rotate(30)" fill="#fff"/>
      <circle id="Ellipse_325" data-name="Ellipse 325" cx="1" cy="1" r="1" transform="translate(9.789 8.789) rotate(30)" fill="#16b2e5"/>
    </g>
  </g>
</svg>
