<svg id="btn_社群_twwiter" xmlns="http://www.w3.org/2000/svg" width="40" height="40" viewBox="0 0 40 40">
  <circle id="Ellipse_183" data-name="Ellipse 183" cx="20" cy="20" r="20" fill="#e5eefc" opacity="0.7"/>
  <g id="icon_social_media_twitter" transform="translate(10 10)">
    <g id="bg" fill="#fff" stroke="#707070" stroke-width="1" opacity="0">
      <rect width="20" height="20" stroke="none"/>
      <rect x="0.5" y="0.5" width="19" height="19" fill="none"/>
    </g>
    <path id="k" d="M99.39,7.431a9.022,9.022,0,0,1-2.365.65A4.044,4.044,0,0,0,98.83,5.807a8.424,8.424,0,0,1-2.6.993,4.1,4.1,0,0,0-7.094,2.8,5.508,5.508,0,0,0,.09.939A11.59,11.59,0,0,1,80.78,6.258a4.1,4.1,0,0,0,1.263,5.487,3.986,3.986,0,0,1-1.859-.505v.036A4.114,4.114,0,0,0,83.469,15.3a3.566,3.566,0,0,1-1.083.126,3.767,3.767,0,0,1-.776-.072,4.129,4.129,0,0,0,3.827,2.852,8.194,8.194,0,0,1-5.072,1.751,5.885,5.885,0,0,1-.975-.054,11.669,11.669,0,0,0,17.96-9.819V9.561A8.18,8.18,0,0,0,99.39,7.431Z" transform="translate(-79.39 -3.698)" fill="#03a9f4"/>
  </g>
</svg>
