<svg xmlns="http://www.w3.org/2000/svg" width="32" height="32" viewBox="0 0 32 32">
  <g id="icon_bottom_bar_s_bigcircle_02_b_full" transform="translate(-986 -1927)">
    <path id="Path_11612" data-name="Path 11612" d="M16,0A16,16,0,1,1,0,16,16,16,0,0,1,16,0Z" transform="translate(986 1927)" fill="#35c4f3" opacity="0.12"/>
    <g id="icon_bottom_bar_s_bigcircle_02_b" transform="translate(992 1933)">
      <rect id="Rectangle_3242" data-name="Rectangle 3242" width="20" height="20" fill="#abffff" opacity="0"/>
      <path id="Path_4619" data-name="Path 4619" d="M11.073,6.379A5.129,5.129,0,1,1,5.943,1.25a5.129,5.129,0,0,1,5.129,5.129" transform="translate(0.587 0.421)" fill="#16b2e5" stroke="#16b2e5" stroke-linecap="round" stroke-width="1.5"/>
      <path id="Path_4620" data-name="Path 4620" d="M9.044,15.688a1.968,1.968,0,1,1-1.969-1.969,1.968,1.968,0,0,1,1.969,1.969" transform="translate(0.326 0.673)" fill="#16b2e5" stroke="#16b2e5" stroke-linecap="round" stroke-width="1.5"/>
      <path id="Path_4621" data-name="Path 4621" d="M17.365,11.535a2.813,2.813,0,1,1-2.813-2.813,2.813,2.813,0,0,1,2.813,2.813" transform="translate(1.234 1.278)" fill="#16b2e5" stroke="#16b2e5" stroke-linecap="round" stroke-width="1.5"/>
    </g>
  </g>
</svg>
